<svg xmlns="http://www.w3.org/2000/svg" version="1.1" xmlns:xlink="http://www.w3.org/1999/xlink" xmlns:svgjs="http://svgjs.dev/svgjs" width="1000" height="1000" viewBox="0 0 1000 1000"><rect width="1000" height="1000" fill="#ffffff"></rect><g transform="matrix(0.7,0,0,0.7,149.57578385676027,438.43389378106485)"><svg viewBox="0 0 396 70" data-background-color="#ffffff" preserveAspectRatio="xMidYMid meet" height="176" width="1000" xmlns="http://www.w3.org/2000/svg" xmlns:xlink="http://www.w3.org/1999/xlink"><g id="tight-bounds" transform="matrix(1,0,0,1,0.23998513246135644,-0.01925783015047955)"><svg viewBox="0 0 395.52 70.03851566030097" height="70.03851566030097" width="395.52"><g><svg viewBox="0 0 501.5779996263072 88.81922173768596" height="70.03851566030097" width="395.52"><g><rect width="4.717690995047391" height="88.81922173768596" x="88.9903322044342" y="0" fill="#31c48d" opacity="1" stroke-width="0" stroke="transparent" fill-opacity="1" class="rect-o-0" data-fill-palette-color="primary" rx="1%" id="o-0" data-palette-color="#31c48d"></rect></g><g transform="matrix(1,0,0,1,106.05799962630722,0.22094333765593177)"><svg viewBox="0 0 395.52 88.3773350623741" height="88.3773350623741" width="395.52"><g id="textblocktransform"><svg viewBox="0 0 395.52 88.3773350623741" height="88.3773350623741" width="395.52" id="textblock"><g><svg viewBox="0 0 395.52 52.31356184798807" height="52.31356184798807" width="395.52"><g transform="matrix(1,0,0,1,0,0)"><svg width="395.52" viewBox="3.950000047683716 -34.900001525878906 268.3799743652344 35.5" height="52.31356184798807" data-palette-color="#31c48d"><path d="M3.95 0L3.95-34.3 20.65-34.3Q25.8-34.3 28.55-31.45 31.3-28.6 31.3-23.85L31.3-23.85Q31.3-19 28.43-16.07 25.55-13.15 20.65-13.15L20.65-13.15 8.7-13.15 8.7 0 3.95 0ZM8.7-17.3L20.4-17.3Q23.2-17.3 24.85-19.05 26.5-20.8 26.5-23.8L26.5-23.8Q26.5-26.85 24.95-28.5 23.4-30.15 20.4-30.15L20.4-30.15 8.7-30.15 8.7-17.3ZM37.3 0L37.3-34.3 55.15-34.3Q60.3-34.3 63.05-31.65 65.8-29 65.8-24.55L65.8-24.55Q65.8-21.05 64.12-18.5 62.45-15.95 59.5-14.85L59.5-14.85 67.4 0 62.1 0 54.65-14.15 42.05-14.15 42.05 0 37.3 0ZM42.05-18.3L54.9-18.3Q57.7-18.3 59.35-19.95 61-21.6 61-24.5L61-24.5Q61-27.2 59.45-28.68 57.9-30.15 54.9-30.15L54.9-30.15 42.05-30.15 42.05-18.3ZM73.4 0L73.4-34.3 99.8-34.3 99.8-30.15 78.15-30.15 78.15-19.6 97.6-19.6 97.6-15.45 78.15-15.45 78.15-4.15 100.1-4.15 100.1 0 73.4 0ZM119.39 0.6Q113.14 0.6 109.19-1.9 105.24-4.4 105.24-9.7L105.24-9.7 105.29-10.7 109.99-10.7Q109.89-10 109.89-9.65L109.89-9.65Q109.89-6.6 112.42-5.03 114.94-3.45 119.14-3.45L119.14-3.45Q123.84-3.45 126.34-4.93 128.84-6.4 128.84-9.15L128.84-9.15Q128.84-11 127.54-12.23 126.24-13.45 124.27-14.15 122.29-14.85 118.94-15.7L118.94-15.7Q114.79-16.75 112.24-17.73 109.69-18.7 107.89-20.63 106.09-22.55 106.09-25.7L106.09-25.7Q106.09-30.2 109.84-32.55 113.59-34.9 119.44-34.9L119.44-34.9Q125.29-34.9 128.94-32.52 132.59-30.15 132.59-25.25L132.59-25.25 132.59-24.65 127.94-24.65 127.94-25.4Q127.94-27.95 125.62-29.4 123.29-30.85 119.59-30.85L119.59-30.85Q115.64-30.85 113.27-29.65 110.89-28.45 110.89-26.05L110.89-26.05Q110.89-24.3 112.17-23.2 113.44-22.1 115.32-21.43 117.19-20.75 120.54-19.9L120.54-19.9Q124.69-18.85 127.32-17.85 129.94-16.85 131.77-14.93 133.59-13 133.59-9.9L133.59-9.9Q133.59-4.4 129.77-1.9 125.94 0.6 119.39 0.6L119.39 0.6ZM140.09 0L140.09-34.3 166.49-34.3 166.49-30.15 144.84-30.15 144.84-19.6 164.29-19.6 164.29-15.45 144.84-15.45 144.84-4.15 166.79-4.15 166.79 0 140.09 0ZM173.44 0L173.44-34.3 177.69-34.3 195.79-10.4 196.99-8.8 197.19-8.85 197.19-11.15 197.19-34.3 201.64-34.3 201.64 0 197.59 0 179.39-24.2 178.09-25.95 177.89-25.9 177.89-23.85 177.89 0 173.44 0ZM224.64 0.6Q216.34 0.6 212.14-3.83 207.94-8.25 207.94-17.15L207.94-17.15Q207.94-26.05 212.14-30.48 216.34-34.9 224.64-34.9L224.64-34.9Q231.34-34.9 235.36-31.58 239.39-28.25 239.39-21.9L239.39-21.9 234.54-21.9Q234.54-26.3 231.91-28.58 229.29-30.85 224.64-30.85L224.64-30.85Q218.59-30.85 215.74-27.65 212.89-24.45 212.84-17.25L212.84-17.25 212.84-17.15Q212.84-9.9 215.69-6.68 218.53-3.45 224.64-3.45L224.64-3.45Q229.39-3.45 232.06-5.7 234.74-7.95 234.74-12.3L234.74-12.3 239.39-12.3Q239.39-5.9 235.39-2.65 231.39 0.6 224.64 0.6L224.64 0.6ZM245.63 0L245.63-34.3 272.03-34.3 272.03-30.15 250.38-30.15 250.38-19.6 269.83-19.6 269.83-15.45 250.38-15.45 250.38-4.15 272.33-4.15 272.33 0 245.63 0Z" opacity="1" transform="matrix(1,0,0,1,0,0)" fill="#31c48d" class="wordmark-text-0" data-fill-palette-color="primary" id="text-0"></path></svg></g></svg></g><g transform="matrix(1,0,0,1,0,64.6635382748137)"><svg viewBox="0 0 232.209792 23.71379678756041" height="23.71379678756041" width="232.209792"><g transform="matrix(1,0,0,1,0,0)"><svg width="232.209792" viewBox="1.4500000476837158 -39.20000076293945 475.8499755859375 48.599998474121094" height="23.71379678756041" data-palette-color="#adbfb8"><path d="M29.6-35.4L29.6-35.4Q29.4-33.5 29.33-31.73 29.25-29.95 29.25-29L29.25-29Q29.25-27.8 29.3-26.75 29.35-25.7 29.4-24.9L29.4-24.9 28.25-24.9Q27.9-28.4 27.3-30.43 26.7-32.45 25.2-33.35 23.7-34.25 20.55-34.25L20.55-34.25 17.85-34.25 17.85-5.8Q17.85-3.8 18.23-2.8 18.6-1.8 19.7-1.45 20.8-1.1 22.9-1L22.9-1 22.9 0Q21.6-0.1 19.6-0.13 17.6-0.15 15.55-0.15L15.55-0.15Q13.3-0.15 11.33-0.13 9.35-0.1 8.15 0L8.15 0 8.15-1Q10.25-1.1 11.35-1.45 12.45-1.8 12.83-2.8 13.2-3.8 13.2-5.8L13.2-5.8 13.2-34.25 10.5-34.25Q7.4-34.25 5.88-33.35 4.35-32.45 3.75-30.43 3.15-28.4 2.8-24.9L2.8-24.9 1.65-24.9Q1.75-25.7 1.78-26.75 1.8-27.8 1.8-29L1.8-29Q1.8-29.95 1.73-31.73 1.65-33.5 1.45-35.4L1.45-35.4Q3.55-35.35 6.03-35.3 8.5-35.25 11-35.25 13.5-35.25 15.55-35.25L15.55-35.25Q17.6-35.25 20.08-35.25 22.55-35.25 25.05-35.3 27.55-35.35 29.6-35.4ZM38.5 0.35L38.5 0.35Q35.25 0.35 33.77-1.28 32.3-2.9 32.3-5.6L32.3-5.6Q32.3-7.7 33.32-9.08 34.35-10.45 35.95-11.33 37.55-12.2 39.32-12.83 41.1-13.45 42.7-14.05 44.3-14.65 45.32-15.4 46.35-16.15 46.35-17.3L46.35-17.3 46.35-20.4Q46.35-22.5 45.72-23.6 45.1-24.7 44.05-25.08 43-25.45 41.7-25.45L41.7-25.45Q40.45-25.45 39.02-25.1 37.6-24.75 36.75-23.65L36.75-23.65Q37.7-23.45 38.4-22.65 39.1-21.85 39.1-20.6L39.1-20.6Q39.1-19.35 38.3-18.63 37.5-17.9 36.25-17.9L36.25-17.9Q34.8-17.9 34.12-18.82 33.45-19.75 33.45-20.9L33.45-20.9Q33.45-22.2 34.1-23 34.75-23.8 35.75-24.5L35.75-24.5Q36.9-25.3 38.72-25.88 40.55-26.45 42.85-26.45L42.85-26.45Q44.9-26.45 46.35-25.98 47.8-25.5 48.75-24.6L48.75-24.6Q50.05-23.4 50.45-21.68 50.85-19.95 50.85-17.55L50.85-17.55 50.85-3.65Q50.85-2.45 51.2-1.88 51.55-1.3 52.4-1.3L52.4-1.3Q53.1-1.3 53.62-1.6 54.15-1.9 54.65-2.35L54.65-2.35 55.2-1.5Q54.15-0.7 53.2-0.18 52.25 0.35 50.65 0.35L50.65 0.35Q48.05 0.35 47.2-1 46.35-2.35 46.35-4.1L46.35-4.1Q44.75-1.45 42.72-0.55 40.7 0.35 38.5 0.35ZM40.7-1.65L40.7-1.65Q42.2-1.65 43.65-2.53 45.1-3.4 46.35-5.45L46.35-5.45 46.35-15.25Q45.6-14.15 44.02-13.5 42.45-12.85 40.77-12.08 39.1-11.3 37.9-9.98 36.7-8.65 36.7-6.2L36.7-6.2Q36.7-3.9 37.85-2.78 39-1.65 40.7-1.65ZM64.55-39.2L64.55-39.2 64.55-4.65Q64.55-2.55 65.3-1.8 66.05-1.05 67.84-1.05L67.84-1.05 67.84 0Q67.05-0.05 65.47-0.13 63.9-0.2 62.3-0.2L62.3-0.2Q60.6-0.2 58.85-0.13 57.1-0.05 56.25 0L56.25 0 56.25-1.05Q58.3-1.05 59.17-1.8 60.05-2.55 60.05-4.65L60.05-4.65 60.05-33.2Q60.05-35.45 59.25-36.52 58.45-37.6 56.25-37.6L56.25-37.6 56.25-38.65Q57.85-38.5 59.35-38.5L59.35-38.5Q60.8-38.5 62.12-38.68 63.45-38.85 64.55-39.2ZM80.45-25.75L80.45-25.75 80.45-24.75Q79.2-24.65 78.09-24.08 77-23.5 75.95-22.4L75.95-22.4 68.9-15 69.59-16.4 78.9-3.65Q79.75-2.5 80.52-1.85 81.3-1.2 82.4-1.05L82.4-1.05 82.4 0Q81.84-0.05 80.67-0.13 79.5-0.2 78.34-0.2L78.34-0.2Q76.8-0.2 75.2-0.13 73.59-0.05 72.8 0L72.8 0 72.8-1.05Q73.8-1.05 74.2-1.55 74.59-2.05 74.05-2.75L74.05-2.75 68.3-11.15Q67.34-12.5 66.57-12.9 65.8-13.3 64.34-13.35L64.34-13.35 64.34-14.35Q65.95-14.55 66.95-15.03 67.95-15.5 68.84-16.45L68.84-16.45 72.55-20.3Q74.15-21.95 74.15-22.93 74.15-23.9 73.12-24.33 72.09-24.75 70.45-24.75L70.45-24.75 70.45-25.75Q71.75-25.7 73.37-25.63 75-25.55 76.09-25.55L76.09-25.55Q76.95-25.55 77.75-25.58 78.55-25.6 79.25-25.65 79.95-25.7 80.45-25.75ZM94.94-26.45L94.94-26.45Q99.34-26.45 101.82-23.78 104.29-21.1 104.29-15.45L104.29-15.45 86.64-15.45 86.59-16.4 99.49-16.4Q99.59-18.85 99.09-20.93 98.59-23 97.52-24.25 96.44-25.5 94.74-25.5L94.74-25.5Q92.44-25.5 90.67-23.2 88.89-20.9 88.54-15.9L88.54-15.9 88.69-15.7Q88.59-14.95 88.54-14.05 88.49-13.15 88.49-12.25L88.49-12.25Q88.49-8.85 89.59-6.4 90.69-3.95 92.47-2.68 94.24-1.4 96.14-1.4L96.14-1.4Q98.39-1.4 100.29-2.5 102.19-3.6 103.49-6.4L103.49-6.4 104.49-6Q103.94-4.35 102.69-2.8 101.44-1.25 99.54-0.28 97.64 0.7 95.14 0.7L95.14 0.7Q91.54 0.7 88.97-0.95 86.39-2.6 85.02-5.53 83.64-8.45 83.64-12.25L83.64-12.25Q83.64-16.65 85.04-19.83 86.44-23 88.99-24.73 91.54-26.45 94.94-26.45ZM142.49-25.75L142.49-25.75 142.49-24.75Q141.54-24.65 140.74-23.9 139.94-23.15 139.24-21.25L139.24-21.25 131.04 0.25 130.19 0.25 120.99-21.9Q120.04-23.85 119.11-24.28 118.19-24.7 117.59-24.7L117.59-24.7 117.59-25.75Q118.69-25.6 119.89-25.53 121.09-25.45 122.49-25.45L122.49-25.45Q124.04-25.45 125.76-25.55 127.49-25.65 128.99-25.75L128.99-25.75 128.99-24.7Q127.74-24.7 126.76-24.53 125.79-24.35 125.54-23.48 125.29-22.6 126.14-20.5L126.14-20.5 132.29-5.25 131.99-5.15 137.69-20.05Q138.64-22.55 137.89-23.55 137.14-24.55 134.49-24.75L134.49-24.75 134.49-25.75Q135.79-25.7 136.66-25.65 137.54-25.6 138.69-25.6L138.69-25.6Q139.84-25.6 140.76-25.65 141.69-25.7 142.49-25.75ZM130.09-0.15L131.04 0.25 129.34 4.6Q128.39 7.05 127.19 8.1L127.19 8.1Q126.39 8.85 125.29 9.13 124.19 9.4 123.29 9.4L123.29 9.4Q122.34 9.4 121.56 9.05 120.79 8.7 120.34 8.03 119.89 7.35 119.89 6.4L119.89 6.4Q119.89 5.2 120.59 4.48 121.29 3.75 122.54 3.75L122.54 3.75Q123.59 3.75 124.34 4.35 125.09 4.95 125.09 6.1L125.09 6.1Q125.09 6.95 124.69 7.5 124.29 8.05 123.74 8.35L123.74 8.35Q123.84 8.4 123.91 8.4 123.99 8.4 124.04 8.4L124.04 8.4Q125.39 8.4 126.44 7.48 127.49 6.55 128.29 4.5L128.29 4.5 130.09-0.15ZM156.24-26.45L156.24-26.45Q159.44-26.45 161.99-25.05 164.54-23.65 166.06-20.65 167.59-17.65 167.59-12.85L167.59-12.85Q167.59-8.05 166.06-5.08 164.54-2.1 161.99-0.7 159.44 0.7 156.24 0.7L156.24 0.7Q153.09 0.7 150.51-0.7 147.94-2.1 146.41-5.08 144.89-8.05 144.89-12.85L144.89-12.85Q144.89-17.65 146.41-20.65 147.94-23.65 150.51-25.05 153.09-26.45 156.24-26.45ZM156.24-25.45L156.24-25.45Q153.39-25.45 151.56-22.5 149.74-19.55 149.74-12.85L149.74-12.85Q149.74-6.15 151.56-3.23 153.39-0.3 156.24-0.3L156.24-0.3Q159.09-0.3 160.91-3.23 162.74-6.15 162.74-12.85L162.74-12.85Q162.74-19.55 160.91-22.5 159.09-25.45 156.24-25.45ZM194.08-26.3L194.08-26.3 194.08-5.4Q194.08-3.15 194.91-2.08 195.73-1 197.88-1L197.88-1 197.88 0.05Q196.33-0.1 194.78-0.1L194.78-0.1Q193.33-0.1 192.01 0.05 190.68 0.2 189.58 0.6L189.58 0.6 189.58-5.3Q188.33-2.05 186.06-0.68 183.78 0.7 181.38 0.7L181.38 0.7Q179.63 0.7 178.33 0.2 177.03-0.3 176.18-1.2L176.18-1.2Q175.23-2.2 174.88-3.8 174.53-5.4 174.53-7.75L174.53-7.75 174.53-20.3Q174.53-22.55 173.73-23.63 172.93-24.7 170.73-24.7L170.73-24.7 170.73-25.75Q172.33-25.6 173.83-25.6L173.83-25.6Q175.28-25.6 176.61-25.78 177.93-25.95 179.03-26.3L179.03-26.3 179.03-6.65Q179.03-5.1 179.23-3.8 179.43-2.5 180.23-1.7 181.03-0.9 182.83-0.9L182.83-0.9Q185.78-0.9 187.68-3.53 189.58-6.15 189.58-9.95L189.58-9.95 189.58-20.3Q189.58-22.55 188.78-23.63 187.98-24.7 185.78-24.7L185.78-24.7 185.78-25.75Q187.38-25.6 188.88-25.6L188.88-25.6Q190.33-25.6 191.66-25.78 192.98-25.95 194.08-26.3ZM215.98-26.45L215.98-26.45Q217.33-26.45 218.36-25.9 219.38-25.35 219.96-24.48 220.53-23.6 220.53-22.5L220.53-22.5Q220.53-21.25 219.76-20.3 218.98-19.35 217.68-19.35L217.68-19.35Q216.63-19.35 215.83-20.03 215.03-20.7 215.03-21.95L215.03-21.95Q215.03-22.9 215.56-23.58 216.08-24.25 216.73-24.65L216.73-24.65Q216.38-25.15 215.68-25.15L215.68-25.15Q213.58-25.15 212.03-23.58 210.48-22 209.61-19.8 208.73-17.6 208.73-15.75L208.73-15.75 208.73-5.15Q208.73-2.7 210.16-1.88 211.58-1.05 214.03-1.05L214.03-1.05 214.03 0Q212.88-0.05 210.78-0.13 208.68-0.2 206.33-0.2L206.33-0.2Q204.63-0.2 202.96-0.13 201.28-0.05 200.43 0L200.43 0 200.43-1.05Q202.48-1.05 203.36-1.8 204.23-2.55 204.23-4.65L204.23-4.65 204.23-20.3Q204.23-22.55 203.43-23.63 202.63-24.7 200.43-24.7L200.43-24.7 200.43-25.75Q202.03-25.6 203.53-25.6L203.53-25.6Q204.98-25.6 206.31-25.78 207.63-25.95 208.73-26.3L208.73-26.3 208.73-20.05Q209.28-21.5 210.31-22.98 211.33-24.45 212.78-25.45 214.23-26.45 215.98-26.45ZM240.78 0.35L240.78 0.35Q237.53 0.35 236.05-1.28 234.58-2.9 234.58-5.6L234.58-5.6Q234.58-7.7 235.6-9.08 236.63-10.45 238.23-11.33 239.83-12.2 241.6-12.83 243.38-13.45 244.98-14.05 246.58-14.65 247.6-15.4 248.63-16.15 248.63-17.3L248.63-17.3 248.63-20.4Q248.63-22.5 248-23.6 247.38-24.7 246.33-25.08 245.28-25.45 243.98-25.45L243.98-25.45Q242.73-25.45 241.3-25.1 239.88-24.75 239.03-23.65L239.03-23.65Q239.98-23.45 240.68-22.65 241.38-21.85 241.38-20.6L241.38-20.6Q241.38-19.35 240.58-18.63 239.78-17.9 238.53-17.9L238.53-17.9Q237.08-17.9 236.4-18.82 235.73-19.75 235.73-20.9L235.73-20.9Q235.73-22.2 236.38-23 237.03-23.8 238.03-24.5L238.03-24.5Q239.18-25.3 241-25.88 242.83-26.45 245.13-26.45L245.13-26.45Q247.18-26.45 248.63-25.98 250.08-25.5 251.03-24.6L251.03-24.6Q252.33-23.4 252.73-21.68 253.13-19.95 253.13-17.55L253.13-17.55 253.13-3.65Q253.13-2.45 253.48-1.88 253.83-1.3 254.68-1.3L254.68-1.3Q255.38-1.3 255.9-1.6 256.43-1.9 256.93-2.35L256.93-2.35 257.48-1.5Q256.43-0.7 255.48-0.18 254.53 0.35 252.93 0.35L252.93 0.35Q250.33 0.35 249.48-1 248.63-2.35 248.63-4.1L248.63-4.1Q247.03-1.45 245-0.55 242.98 0.35 240.78 0.35ZM242.98-1.65L242.98-1.65Q244.48-1.65 245.93-2.53 247.38-3.4 248.63-5.45L248.63-5.45 248.63-15.25Q247.88-14.15 246.3-13.5 244.73-12.85 243.05-12.08 241.38-11.3 240.18-9.98 238.98-8.65 238.98-6.2L238.98-6.2Q238.98-3.9 240.13-2.78 241.28-1.65 242.98-1.65ZM267.02-34.05L267.02-34.05 267.02-25.7 274.42-25.7 274.42-24.7 267.02-24.7 267.02-5.35Q267.02-3 267.87-2.05 268.72-1.1 270.22-1.1L270.22-1.1Q271.72-1.1 272.82-2.33 273.92-3.55 274.72-6.45L274.72-6.45 275.72-6.2Q275.22-3.3 273.75-1.3 272.27 0.7 269.22 0.7L269.22 0.7Q267.52 0.7 266.42 0.28 265.32-0.15 264.47-0.95L264.47-0.95Q263.37-2.1 262.95-3.7 262.52-5.3 262.52-7.95L262.52-7.95 262.52-24.7 257.72-24.7 257.72-25.7 262.52-25.7 262.52-33.35Q263.77-33.4 264.92-33.55 266.07-33.7 267.02-34.05ZM282.72-34.05L282.72-34.05 282.72-25.7 290.12-25.7 290.12-24.7 282.72-24.7 282.72-5.35Q282.72-3 283.57-2.05 284.42-1.1 285.92-1.1L285.92-1.1Q287.42-1.1 288.52-2.33 289.62-3.55 290.42-6.45L290.42-6.45 291.42-6.2Q290.92-3.3 289.45-1.3 287.97 0.7 284.92 0.7L284.92 0.7Q283.22 0.7 282.12 0.28 281.02-0.15 280.17-0.95L280.17-0.95Q279.07-2.1 278.65-3.7 278.22-5.3 278.22-7.95L278.22-7.95 278.22-24.7 273.42-24.7 273.42-25.7 278.22-25.7 278.22-33.35Q279.47-33.4 280.62-33.55 281.77-33.7 282.72-34.05ZM304.52-26.45L304.52-26.45Q308.92-26.45 311.39-23.78 313.87-21.1 313.87-15.45L313.87-15.45 296.22-15.45 296.17-16.4 309.07-16.4Q309.17-18.85 308.67-20.93 308.17-23 307.09-24.25 306.02-25.5 304.32-25.5L304.32-25.5Q302.02-25.5 300.24-23.2 298.47-20.9 298.12-15.9L298.12-15.9 298.27-15.7Q298.17-14.95 298.12-14.05 298.07-13.15 298.07-12.25L298.07-12.25Q298.07-8.85 299.17-6.4 300.27-3.95 302.04-2.68 303.82-1.4 305.72-1.4L305.72-1.4Q307.97-1.4 309.87-2.5 311.77-3.6 313.07-6.4L313.07-6.4 314.07-6Q313.52-4.35 312.27-2.8 311.02-1.25 309.12-0.28 307.22 0.7 304.72 0.7L304.72 0.7Q301.12 0.7 298.54-0.95 295.97-2.6 294.59-5.53 293.22-8.45 293.22-12.25L293.22-12.25Q293.22-16.65 294.62-19.83 296.02-23 298.57-24.73 301.12-26.45 304.52-26.45ZM334.47-26.45L334.47-26.45Q336.37-26.45 337.64-25.95 338.92-25.45 339.77-24.55L339.77-24.55Q340.72-23.55 341.12-22.05 341.52-20.55 341.52-18L341.52-18 341.52-4.65Q341.52-2.55 342.39-1.8 343.27-1.05 345.32-1.05L345.32-1.05 345.32 0Q344.47-0.05 342.72-0.13 340.97-0.2 339.32-0.2L339.32-0.2Q337.67-0.2 336.09-0.13 334.52-0.05 333.72 0L333.72 0 333.72-1.05Q335.52-1.05 336.27-1.8 337.02-2.55 337.02-4.65L337.02-4.65 337.02-19.1Q337.02-20.65 336.77-21.95 336.52-23.25 335.64-24.05 334.77-24.85 332.97-24.85L332.97-24.85Q329.82-24.85 327.89-22.23 325.97-19.6 325.97-15.75L325.97-15.75 325.97-4.65Q325.97-2.55 326.72-1.8 327.47-1.05 329.27-1.05L329.27-1.05 329.27 0Q328.47-0.05 326.89-0.13 325.32-0.2 323.67-0.2L323.67-0.2Q322.02-0.2 320.27-0.13 318.52-0.05 317.67 0L317.67 0 317.67-1.05Q319.72-1.05 320.59-1.8 321.47-2.55 321.47-4.65L321.47-4.65 321.47-20.3Q321.47-22.55 320.67-23.63 319.87-24.7 317.67-24.7L317.67-24.7 317.67-25.75Q319.27-25.6 320.77-25.6L320.77-25.6Q322.22-25.6 323.54-25.78 324.87-25.95 325.97-26.3L325.97-26.3 325.97-20.4Q327.27-23.8 329.59-25.13 331.92-26.45 334.47-26.45ZM370.26-39.2L370.26-39.2 370.26-5.45Q370.26-3.2 371.09-2.13 371.91-1.05 374.06-1.05L374.06-1.05 374.06 0Q372.51-0.15 370.96-0.15L370.96-0.15Q369.51-0.15 368.19 0 366.86 0.15 365.76 0.55L365.76 0.55 365.76-33.2Q365.76-35.45 364.96-36.52 364.16-37.6 361.96-37.6L361.96-37.6 361.96-38.65Q363.56-38.5 365.06-38.5L365.06-38.5Q366.51-38.5 367.84-38.68 369.16-38.85 370.26-39.2ZM359.76-26.45L359.76-26.45Q361.96-26.45 363.89-25.4 365.81-24.35 366.46-21.8L366.46-21.8 365.81-21.3Q365.11-23.4 363.64-24.35 362.16-25.3 360.16-25.3L360.16-25.3Q357.21-25.3 355.24-22.25 353.26-19.2 353.31-12.85L353.31-12.85Q353.31-8.8 354.09-6.13 354.86-3.45 356.39-2.13 357.91-0.8 360.11-0.8L360.11-0.8Q362.21-0.8 363.91-2.6 365.61-4.4 365.96-7.9L365.96-7.9 366.56-7.2Q366.16-3.4 364.14-1.35 362.11 0.7 358.66 0.7L358.66 0.7Q355.56 0.7 353.24-0.8 350.91-2.3 349.69-5.3 348.46-8.3 348.46-12.85L348.46-12.85Q348.46-17.4 350.04-20.43 351.61-23.45 354.19-24.95 356.76-26.45 359.76-26.45ZM383.26 0.35L383.26 0.35Q380.01 0.35 378.54-1.28 377.06-2.9 377.06-5.6L377.06-5.6Q377.06-7.7 378.09-9.08 379.11-10.45 380.71-11.33 382.31-12.2 384.09-12.83 385.86-13.45 387.46-14.05 389.06-14.65 390.09-15.4 391.11-16.15 391.11-17.3L391.11-17.3 391.11-20.4Q391.11-22.5 390.49-23.6 389.86-24.7 388.81-25.08 387.76-25.45 386.46-25.45L386.46-25.45Q385.21-25.45 383.79-25.1 382.36-24.75 381.51-23.65L381.51-23.65Q382.46-23.45 383.16-22.65 383.86-21.85 383.86-20.6L383.86-20.6Q383.86-19.35 383.06-18.63 382.26-17.9 381.01-17.9L381.01-17.9Q379.56-17.9 378.89-18.82 378.21-19.75 378.21-20.9L378.21-20.9Q378.21-22.2 378.86-23 379.51-23.8 380.51-24.5L380.51-24.5Q381.66-25.3 383.49-25.88 385.31-26.45 387.61-26.45L387.61-26.45Q389.66-26.45 391.11-25.98 392.56-25.5 393.51-24.6L393.51-24.6Q394.81-23.4 395.21-21.68 395.61-19.95 395.61-17.55L395.61-17.55 395.61-3.65Q395.61-2.45 395.96-1.88 396.31-1.3 397.16-1.3L397.16-1.3Q397.86-1.3 398.39-1.6 398.91-1.9 399.41-2.35L399.41-2.35 399.96-1.5Q398.91-0.7 397.96-0.18 397.01 0.35 395.41 0.35L395.41 0.35Q392.81 0.35 391.96-1 391.11-2.35 391.11-4.1L391.11-4.1Q389.51-1.45 387.49-0.55 385.46 0.35 383.26 0.35ZM385.46-1.65L385.46-1.65Q386.96-1.65 388.41-2.53 389.86-3.4 391.11-5.45L391.11-5.45 391.11-15.25Q390.36-14.15 388.79-13.5 387.21-12.85 385.54-12.08 383.86-11.3 382.66-9.98 381.46-8.65 381.46-6.2L381.46-6.2Q381.46-3.9 382.61-2.78 383.76-1.65 385.46-1.65ZM418.26-26.45L418.26-26.45Q420.16-26.45 421.43-25.95 422.71-25.45 423.56-24.55L423.56-24.55Q424.51-23.55 424.91-22.05 425.31-20.55 425.31-18L425.31-18 425.31-4.65Q425.31-2.55 426.18-1.8 427.06-1.05 429.11-1.05L429.11-1.05 429.11 0Q428.26-0.05 426.51-0.13 424.76-0.2 423.11-0.2L423.11-0.2Q421.46-0.2 419.88-0.13 418.31-0.05 417.51 0L417.51 0 417.51-1.05Q419.31-1.05 420.06-1.8 420.81-2.55 420.81-4.65L420.81-4.65 420.81-19.1Q420.81-20.65 420.56-21.95 420.31-23.25 419.43-24.05 418.56-24.85 416.76-24.85L416.76-24.85Q413.61-24.85 411.68-22.23 409.76-19.6 409.76-15.75L409.76-15.75 409.76-4.65Q409.76-2.55 410.51-1.8 411.26-1.05 413.06-1.05L413.06-1.05 413.06 0Q412.26-0.05 410.68-0.13 409.11-0.2 407.46-0.2L407.46-0.2Q405.81-0.2 404.06-0.13 402.31-0.05 401.46 0L401.46 0 401.46-1.05Q403.51-1.05 404.38-1.8 405.26-2.55 405.26-4.65L405.26-4.65 405.26-20.3Q405.26-22.55 404.46-23.63 403.66-24.7 401.46-24.7L401.46-24.7 401.46-25.75Q403.06-25.6 404.56-25.6L404.56-25.6Q406.01-25.6 407.33-25.78 408.66-25.95 409.76-26.3L409.76-26.3 409.76-20.4Q411.06-23.8 413.38-25.13 415.71-26.45 418.26-26.45ZM443.81-26.45L443.81-26.45Q445.41-26.45 446.91-26.05 448.41-25.65 449.61-24.85L449.61-24.85Q450.76-24.1 451.36-23.13 451.96-22.15 451.96-21L451.96-21Q451.96-19.65 451.21-18.93 450.46-18.2 449.31-18.2L449.31-18.2Q448.21-18.2 447.38-18.85 446.56-19.5 446.56-20.7L446.56-20.7Q446.56-21.85 447.18-22.55 447.81-23.25 448.66-23.45L448.66-23.45Q448.16-24.35 446.88-24.95 445.61-25.55 444.16-25.55L444.16-25.55Q442.91-25.55 441.66-24.95 440.41-24.35 439.36-22.98 438.31-21.6 437.66-19.23 437.01-16.85 437.01-13.3L437.01-13.3Q437.01-8.9 438.01-6.3 439.01-3.7 440.63-2.58 442.26-1.45 444.21-1.45L444.21-1.45Q446.16-1.45 448.16-2.6 450.16-3.75 451.46-6.6L451.46-6.6 452.41-6.25Q451.91-4.65 450.76-3.03 449.61-1.4 447.76-0.35 445.91 0.7 443.21 0.7L443.21 0.7Q440.11 0.7 437.61-0.9 435.11-2.5 433.63-5.48 432.16-8.45 432.16-12.55L432.16-12.55Q432.16-16.65 433.63-19.78 435.11-22.9 437.76-24.68 440.41-26.45 443.81-26.45ZM467.75-26.45L467.75-26.45Q472.15-26.45 474.63-23.78 477.1-21.1 477.1-15.45L477.1-15.45 459.45-15.45 459.4-16.4 472.3-16.4Q472.4-18.85 471.9-20.93 471.4-23 470.33-24.25 469.25-25.5 467.55-25.5L467.55-25.5Q465.25-25.5 463.48-23.2 461.7-20.9 461.35-15.9L461.35-15.9 461.5-15.7Q461.4-14.95 461.35-14.05 461.3-13.15 461.3-12.25L461.3-12.25Q461.3-8.85 462.4-6.4 463.5-3.95 465.28-2.68 467.05-1.4 468.95-1.4L468.95-1.4Q471.2-1.4 473.1-2.5 475-3.6 476.3-6.4L476.3-6.4 477.3-6Q476.75-4.35 475.5-2.8 474.25-1.25 472.35-0.28 470.45 0.7 467.95 0.7L467.95 0.7Q464.35 0.7 461.78-0.95 459.2-2.6 457.83-5.53 456.45-8.45 456.45-12.25L456.45-12.25Q456.45-16.65 457.85-19.83 459.25-23 461.8-24.73 464.35-26.45 467.75-26.45Z" opacity="1" transform="matrix(1,0,0,1,0,0)" fill="#adbfb8" class="slogan-text-1" data-fill-palette-color="secondary" id="text-1"></path></svg></g></svg></g></svg></g></svg></g><g transform="matrix(1,0,0,1,0,0.22094333765593177)"><svg viewBox="0 0 76.64035577760856 88.3773350623741" height="88.3773350623741" width="76.64035577760856"><g><svg xmlns="http://www.w3.org/2000/svg" viewBox="7.499997615814209 3.75 49 56.50403594970703" x="0" y="0" height="88.3773350623741" width="76.64035577760856" class="icon-icon-0" data-fill-palette-color="accent" id="icon-0"><g fill="#36b845" data-fill-palette-color="accent"><path d="M33.5 11.3V6.75H36v-3H28v3h2.5V11.3a24.5 24.5 0 1 0 3 0Zm-1.5 40a15.5 15.5 0 1 1 15.5-15.5A15.51 15.51 0 0 1 32 51.25Z" fill="#36b845" data-fill-palette-color="accent"></path><path d="M32 23.25a12.5 12.5 0 1 0 12.5 12.5A12.52 12.52 0 0 0 32 23.25Zm-3.28 19l-5.91-5.91 2.12-2.12 3.92 3.93 10.36-9.07 2 2.26Z" fill="#36b845" data-fill-palette-color="accent"></path></g></svg></g></svg></g></svg></g><defs></defs></svg><rect width="395.52" height="70.03851566030097" fill="none" stroke="none" visibility="hidden"></rect></g></svg></g></svg>